# xmcd CD database file
#
# Track frame offsets:
#	150
#	74759
#	118844
#	149974
#	183142
#	212110
#	243495
#	277521
#
# Disc length: 4592 seconds
#
# Revision: 0
# Processed by: cddbd v1.5.2PL0 Copyright (c) Steve Scherf et al.
# Submitted via: CDex 1.70beta3
#
DISCID=8011ee08
DTITLE=Steve Coleman and Five Elements - Live at the Village Vanguard, Vol. 1 (The Embedded Sets) - Embedded B (Second Set)
DYEAR=2017
DGENRE=Jazz
TTITLE0=rmT - Figit Time
TTITLE1=Nfr
TTITLE2=idHw
TTITLE3=twf
TTITLE4=Horda
TTITLE5=Embedded #1
TTITLE6=Djw
TTITLE7=rmT - 9 To 5
EXTD=YEAR: 2017
EXTT0=
EXTT1=
EXTT2=
EXTT3=
EXTT4=
EXTT5=
EXTT6=
EXTT7=
PLAYORDER=
